<svg width="341" height="241" viewBox="0 0 341 241" fill="none" xmlns="http://www.w3.org/2000/svg">
<g filter="url(#filter0_i_2_109)">
<path d="M329.89 75.0347C314.271 46.5624 279.359 28.8883 247.833 36.6848C230.658 40.9527 215.628 51.8763 198.303 55.4679C183.6 58.4551 168.312 55.9797 155.303 48.5053C136.287 37.4904 124.148 16.8027 104.578 6.81599C77.6073 -6.96641 42.4927 4.4968 23.1649 27.813C-22.6061 83.0294 5.28331 162.533 56.146 202.753C81.9488 223.158 96.7755 230.225 134.078 238.54C165.764 245.636 219.66 235.306 250.679 225.689C281.698 216.073 310.219 196.275 326.533 168.184C342.848 140.093 345.518 103.504 329.89 75.0347Z" fill="#F1F1FA"/>
</g>
<mask id="mask0_2_109" style="mask-type:alpha" maskUnits="userSpaceOnUse" x="0" y="0" width="341" height="241">
<path d="M329.89 75.0347C314.271 46.5624 279.359 28.8883 247.833 36.6848C230.658 40.9527 215.628 51.8763 198.303 55.4679C183.6 58.4551 168.312 55.9797 155.303 48.5053C136.287 37.4904 124.148 16.8027 104.578 6.81599C77.6073 -6.96641 42.4927 4.4968 23.1649 27.813C-22.6061 83.0294 5.28331 162.533 56.146 202.753C81.9488 223.158 96.7755 230.225 134.078 238.54C165.764 245.636 219.66 235.306 250.679 225.689C281.698 216.073 310.219 196.275 326.533 168.184C342.848 140.093 345.518 103.504 329.89 75.0347Z" fill="#F1F1FA"/>
</mask>
<g mask="url(#mask0_2_109)">
<path d="M243.036 207.022L246.743 208.536L29.4979 268.827C-34.6128 262.017 -157.154 240.425 -134.433 208.536C-106.031 168.674 -74.1422 144.758 0.598267 144.758C90.5476 144.757 102.54 149.654 243.036 207.022Z" fill="#BBBBD6"/>
<path d="M267.877 179.585C306.923 179.585 338.377 188.239 371.458 229.888L265.708 278.568C195.931 271.176 96.7247 279.109 121.454 244.492C152.365 201.22 186.531 179.585 267.877 179.585Z" fill="#BBBBD6" stroke="#F1F1FA" stroke-width="3.98616"/>
<path d="M117.612 121.873C117.612 122.256 117.499 122.63 117.286 122.948C117.073 123.266 116.77 123.514 116.416 123.66C116.062 123.806 115.673 123.844 115.298 123.769C114.922 123.693 114.578 123.508 114.308 123.237C114.038 122.966 113.854 122.62 113.781 122.244C113.707 121.869 113.747 121.48 113.894 121.126C114.042 120.773 114.292 120.472 114.611 120.26C114.93 120.049 115.305 119.937 115.688 119.939C115.941 119.939 116.192 119.989 116.426 120.086C116.66 120.184 116.873 120.326 117.052 120.506C117.231 120.686 117.372 120.899 117.468 121.133C117.565 121.368 117.614 121.619 117.612 121.873Z" fill="#263238"/>
<path d="M126.86 114.284C127.928 114.284 128.793 113.418 128.793 112.35C128.793 111.282 127.928 110.416 126.86 110.416C125.792 110.416 124.926 111.282 124.926 112.35C124.926 113.418 125.792 114.284 126.86 114.284Z" fill="#263238"/>
<path d="M100.758 145.711C100.759 146.094 100.647 146.469 100.436 146.788C100.225 147.107 99.9233 147.357 99.5701 147.504C99.2169 147.652 98.8278 147.692 98.4521 147.618C98.0764 147.545 97.7309 147.361 97.4596 147.091C97.1882 146.821 97.0031 146.476 96.9277 146.101C96.8524 145.726 96.8901 145.336 97.0362 144.982C97.1823 144.629 97.4302 144.326 97.7484 144.113C98.0666 143.9 98.4408 143.787 98.8237 143.787C99.0772 143.785 99.3285 143.834 99.5631 143.93C99.7976 144.027 100.011 144.168 100.191 144.347C100.37 144.526 100.513 144.738 100.61 144.973C100.707 145.207 100.758 145.458 100.758 145.711Z" fill="#263238"/>
<path d="M-82.6699 200.459C-82.7192 200.334 -82.7683 200.209 -82.8173 200.084C-60.6977 217.902 -36.7912 228.24 -17.2245 227.748C-12.2776 227.618 -7.36871 226.847 -2.62034 225.456L1.63725 228.912C-4.39446 231.017 -10.7186 232.164 -17.1054 232.312C-37.8918 232.871 -56.7077 226.373 -79.7762 207.704C-80.8845 205.336 -81.9539 202.836 -82.9842 200.206C-82.8795 200.291 -82.7747 200.375 -82.6699 200.459ZM-82.6699 200.459C-81.6866 202.951 -80.6682 205.324 -79.6146 207.577M-82.6699 200.459C-60.6078 218.157 -36.7719 228.44 -17.2195 227.948C-12.1798 227.815 -7.17975 227.021 -2.34757 225.584L-2.03321 225.491L-2.26021 225.254C-7.58076 219.706 -10.2697 212.454 -10.2332 203.626V203.625C-10.2332 193.972 -6.09151 189.63 -2.69026 187.687L-2.68995 187.687C2.13761 184.916 8.76883 185.285 14.606 188.685C21.039 192.438 24.8533 198.771 24.8266 205.631C24.7823 208.445 24.1001 211.213 22.8311 213.726C21.562 216.239 19.7392 218.431 17.4999 220.138L17.4994 220.138C14.1378 222.717 10.4951 224.908 6.64079 226.668L6.27823 226.833L6.62766 227.025C17.7326 233.118 30.6147 235.148 43.0552 232.765L43.0566 232.765C62.6105 228.883 78.9549 221.944 91.6234 212.133C101.541 204.511 109.505 194.642 114.86 183.338C120.214 172.035 122.806 159.621 122.422 147.119V147.04H122.423L122.422 147.03C121.291 124.372 108.067 102.242 88.7076 90.6408C71.9207 80.5741 50.42 77.8226 28.1809 82.8728L28.2252 83.0678L28.1808 82.8728C14.3664 86.012 -4.46629 93.4627 -15.5701 111.153L-15.4007 111.26L-15.5701 111.153C-21.5516 120.687 -23.7319 131.367 -23.1833 141.038C-22.6349 150.705 -19.3583 159.381 -14.4039 164.899C-10.8431 168.869 -5.662 170.123 -0.0510941 170.114C5.51875 170.105 11.5527 168.851 16.9217 167.735L17.0383 167.711L17.0386 167.711L20.593 166.978C20.593 166.978 20.5931 166.978 20.5931 166.978C23.5168 166.396 28.6555 164.575 34.7059 162.179C40.7623 159.78 47.7489 156.798 54.3768 153.887C61.005 150.976 67.2758 148.136 71.9009 146.019C74.2134 144.96 76.1146 144.083 77.4434 143.468C77.964 143.227 78.3967 143.026 78.7318 142.871L78.987 142.752C79.1292 142.687 79.2455 142.633 79.3348 142.591L80.2287 145.954C80.2133 145.961 80.1972 145.968 80.1805 145.976C80.0693 146.027 79.9162 146.098 79.724 146.188C79.3396 146.369 78.7967 146.626 78.1153 146.949C77.8917 147.056 77.6531 147.169 77.4002 147.289C76.1119 147.901 74.4534 148.688 72.5156 149.603C67.8792 151.792 61.6448 154.71 55.0616 157.693C48.4781 160.677 41.5471 163.726 35.5173 166.177C29.4818 168.631 24.3661 170.478 21.4044 171.067C20.2663 171.287 19.092 171.535 17.8917 171.792C11.9299 173.044 5.24844 174.443 -1.036 174.314C-7.31573 174.185 -13.1713 172.531 -17.5064 167.702C-23.8095 160.67 -27.3263 150.511 -27.3902 139.084V139.084C-27.4602 128.465 -24.5902 118.033 -19.098 108.945C-7.22438 90.0673 12.6472 82.1395 27.2617 78.7902C50.5632 73.5024 73.1465 76.4329 90.8481 87.0153C111.32 99.3536 125.307 122.82 126.55 146.785L126.551 146.791C126.65 148.002 127.877 165.485 118.522 185.274C112.909 197.124 104.553 207.467 94.1471 215.445L94.1463 215.446C80.9692 225.651 64.0535 232.826 43.8216 236.873C40.1705 237.598 36.4569 237.962 32.7345 237.959C28.764 237.959 24.8053 237.53 20.9267 236.681M20.9267 236.681C20.9268 236.681 20.9268 236.681 20.9269 236.681L20.8839 236.876L20.9267 236.681Z" fill="#302EA7" stroke="black" stroke-width="0.4"/>
<path d="M5.28493 231.276C4.66805 231.104 4.08744 230.821 3.57106 230.442C2.26745 229.619 1.02676 228.7 -0.140803 227.693C-1.32741 226.714 -2.4338 225.641 -3.4494 224.485C-3.90643 224.031 -4.27065 223.493 -4.52171 222.9C-4.46672 222.9 -4.03597 223.449 -3.21111 224.274C-2.38625 225.099 -1.21312 226.199 0.143313 227.345C1.49975 228.49 2.79202 229.48 3.74519 230.149C4.2845 230.488 4.79905 230.865 5.28493 231.276Z" fill="#263238"/>
<path d="M10.0872 228.6C9.37261 228.561 8.67239 228.383 8.02509 228.078C6.43647 227.424 4.95386 226.537 3.62584 225.447C2.29201 224.37 1.08926 223.139 0.0422903 221.781C-0.426157 221.234 -0.803679 220.615 -1.07585 219.948C-1.02086 219.948 -0.562602 220.572 0.289752 221.552C1.40328 222.828 2.63033 224 3.95579 225.053C5.257 226.119 6.68172 227.023 8.19921 227.748C9.31735 228.334 10.1056 228.527 10.0872 228.6Z" fill="#263238"/>
<path d="M106.742 198.814C106.371 199.527 105.922 200.197 105.404 200.812C103.05 203.889 100.336 206.674 97.3207 209.106C96.7218 209.641 96.0638 210.105 95.3594 210.49C95.8974 209.917 96.4763 209.384 97.0916 208.895C98.1914 207.915 99.6853 206.531 101.262 204.927C102.838 203.323 104.176 201.774 105.129 200.647C105.622 199.997 106.161 199.385 106.742 198.814Z" fill="white"/>
<path d="M144.457 148.662L136.309 106.778C136.127 105.983 135.643 105.289 134.959 104.844C134.275 104.399 133.445 104.238 132.644 104.394C131.843 104.55 131.134 105.011 130.667 105.68C130.2 106.349 130.011 107.173 130.141 107.979L130.517 109.885L113.662 114.027C111.875 114.466 110.222 115.336 108.85 116.561C107.477 117.787 106.426 119.331 105.789 121.057L95.625 123.559C93.9336 123.975 92.4767 125.046 91.5745 126.536C90.6722 128.026 90.3985 129.814 90.8134 131.505L91.7299 135.171L81.7858 137.628C81.1268 137.79 80.5063 138.081 79.9597 138.483C79.4131 138.885 78.951 139.391 78.6 139.972C78.2489 140.553 78.0157 141.197 77.9136 141.868C77.8116 142.539 77.8427 143.224 78.0052 143.883C78.1677 144.542 78.4583 145.162 78.8606 145.709C79.2629 146.255 79.7689 146.717 80.3498 147.069C80.9306 147.42 81.5749 147.653 82.2459 147.755C82.9169 147.857 83.6014 147.826 84.2603 147.663L94.2136 145.216L94.9193 148.085C95.3357 149.776 96.4065 151.233 97.8965 152.135C99.3865 153.038 101.174 153.311 102.865 152.897L113.213 150.349V150.266C114.569 151.426 116.181 152.246 117.917 152.659C119.652 153.071 121.461 153.065 123.194 152.64L138.151 148.974L138.325 149.89C138.507 150.686 138.991 151.379 139.675 151.824C140.359 152.269 141.189 152.431 141.99 152.275C142.791 152.119 143.5 151.658 143.967 150.989C144.434 150.32 144.623 149.495 144.493 148.69L144.457 148.662Z" fill="#302EA7"/>
<path d="M144.457 148.662C144.52 148.892 144.548 149.13 144.539 149.368C144.527 150.078 144.275 150.763 143.824 151.311C143.453 151.754 142.97 152.09 142.425 152.284C141.881 152.477 141.294 152.521 140.726 152.411C140.171 152.293 139.657 152.03 139.237 151.648C138.817 151.266 138.505 150.78 138.334 150.239C138.215 149.835 138.16 149.423 138.069 149.001L138.188 149.075L127.19 151.824L123.899 152.649C122.734 152.984 121.528 153.151 120.316 153.144C117.662 153.093 115.109 152.121 113.094 150.395L113.369 150.22V150.294L113.414 150.468H113.24C109.748 151.32 106.092 152.301 102.16 153.172C101.111 153.306 100.045 153.194 99.0478 152.844C98.0501 152.494 97.148 151.915 96.4132 151.155C95.6509 150.371 95.0938 149.411 94.791 148.36C94.5069 147.315 94.2686 146.27 94.0028 145.216L94.2502 145.372L85.855 147.489C85.131 147.645 84.4436 147.865 83.6646 147.984C82.6718 148.105 81.6651 147.946 80.7576 147.526C79.8502 147.106 79.0782 146.44 78.5285 145.605C77.9789 144.769 77.6734 143.797 77.6465 142.797C77.6196 141.798 77.8724 140.81 78.3763 139.946C78.8009 139.247 79.3724 138.647 80.0513 138.19C80.7301 137.733 81.5001 137.428 82.3081 137.298L91.6749 134.997L91.5099 135.263C91.3266 134.502 91.1341 133.714 90.9325 132.917C90.6951 132.098 90.5265 131.261 90.4284 130.415C90.303 128.668 90.858 126.941 91.9773 125.594C92.5244 124.932 93.1933 124.381 93.9478 123.972C94.6994 123.586 95.5016 123.308 96.3307 123.147L105.734 120.837L105.587 120.975C106.484 118.576 108.151 116.543 110.326 115.191C111.387 114.545 112.544 114.072 113.754 113.789L117.236 112.928L130.471 109.692L130.324 109.922C130.223 109.427 130.132 108.923 130.031 108.428C129.9 107.922 129.866 107.397 129.93 106.879C130.012 106.366 130.213 105.88 130.517 105.459C130.821 105.038 131.219 104.694 131.679 104.455C132.14 104.215 132.65 104.087 133.169 104.079C133.688 104.072 134.201 104.187 134.668 104.413C135.125 104.622 135.528 104.933 135.846 105.323C136.164 105.712 136.388 106.169 136.501 106.659L138.508 117.024C139.755 123.532 140.846 129.214 141.744 133.916C142.642 138.617 143.329 142.283 143.815 144.822C144.044 146.069 144.218 147.031 144.337 147.7C144.392 148.021 144.438 148.259 144.466 148.442C144.474 148.528 144.474 148.614 144.466 148.699C144.435 148.619 144.414 148.536 144.402 148.452C144.402 148.268 144.31 148.03 144.246 147.718L143.65 144.841C143.146 142.311 142.413 138.627 141.478 133.962C140.543 129.297 139.434 123.587 138.151 117.089C137.509 113.838 136.828 110.389 136.107 106.741C136.006 106.309 135.809 105.906 135.529 105.561C135.25 105.217 134.896 104.94 134.494 104.752C134.08 104.555 133.626 104.458 133.167 104.469C132.709 104.479 132.259 104.597 131.855 104.813C131.45 105.028 131.102 105.336 130.837 105.711C130.573 106.085 130.4 106.517 130.333 106.97C130.268 107.445 130.3 107.928 130.425 108.391C130.526 108.886 130.626 109.381 130.718 109.885V110.068L130.535 110.114L117.31 113.386C115.027 114.018 112.571 114.302 110.527 115.595C108.426 116.894 106.814 118.854 105.945 121.167L105.899 121.277H105.789L96.3857 123.596C95.5948 123.746 94.8293 124.008 94.1128 124.375C93.4129 124.76 92.7913 125.273 92.2797 125.887C91.2318 127.143 90.7125 128.756 90.8317 130.387C90.9259 131.21 91.0915 132.022 91.3266 132.816C91.5191 133.622 91.7207 134.411 91.904 135.171L91.959 135.382L91.739 135.437L82.4273 137.738C81.6738 137.847 80.9541 138.123 80.3201 138.544C79.6861 138.966 79.1537 139.523 78.7612 140.175C78.3086 140.966 78.0845 141.868 78.1139 142.779C78.1433 143.689 78.425 144.574 78.9277 145.334C79.4304 146.095 80.1343 146.7 80.9609 147.084C81.7876 147.468 82.7045 147.614 83.6096 147.508C84.3061 147.416 85.0393 147.187 85.7542 147.022L94.1403 144.969L94.3419 144.923L94.3877 145.115C94.6535 146.169 94.8918 147.233 95.1667 148.25C95.4505 149.238 95.973 150.142 96.6882 150.88C97.379 151.597 98.2273 152.144 99.1658 152.476C100.104 152.809 101.107 152.918 102.096 152.796C105.954 151.934 109.675 150.963 113.149 150.129L113.03 150.34V150.266L112.901 149.744L113.304 150.092C115.261 151.769 117.74 152.712 120.316 152.759C121.5 152.769 122.679 152.609 123.817 152.283L127.107 151.485L138.105 148.818H138.206V148.919C138.298 149.341 138.353 149.771 138.463 150.147C138.573 150.517 138.753 150.863 138.994 151.164C139.442 151.709 140.058 152.089 140.745 152.246C141.184 152.336 141.638 152.331 142.075 152.229C142.512 152.127 142.922 151.932 143.277 151.657C143.631 151.382 143.922 151.033 144.129 150.635C144.336 150.236 144.454 149.798 144.475 149.35C144.48 149.12 144.474 148.891 144.457 148.662Z" fill="#263238"/>
<path d="M138.481 148.882C138.362 148.882 136.4 140.212 134.1 129.471C131.8 118.729 130.022 109.986 130.15 109.958C130.278 109.931 132.23 118.619 134.54 129.37C136.85 140.12 138.609 148.855 138.481 148.882Z" fill="#263238"/>
<path d="M113.177 150.239C113.057 150.239 111.344 143.741 109.272 135.666C107.201 127.592 105.689 121.002 105.808 121.002C105.927 121.002 107.641 127.5 109.712 135.593C111.783 143.686 113.296 150.239 113.177 150.239Z" fill="#263238"/>
<path d="M94.1955 145.216C93.5232 143.627 93.0342 141.967 92.7382 140.267C92.2995 138.603 91.9628 136.913 91.7301 135.208C92.3975 136.801 92.8833 138.464 93.1781 140.166C93.6174 141.828 93.9571 143.514 94.1955 145.216Z" fill="#263238"/>
<path d="M103.232 123.468C103.232 123.532 102.252 123.678 100.675 124.008C99.8871 124.173 98.9523 124.384 97.9258 124.668C96.8216 124.952 95.7565 125.37 94.7547 125.915C93.7372 126.377 92.9342 127.209 92.5092 128.243C92.3033 129.146 92.2846 130.081 92.4543 130.992C92.6559 132.578 92.9217 133.549 92.8575 133.567C92.4849 132.767 92.2405 131.914 92.1335 131.038C91.9249 130.084 91.9249 129.096 92.1335 128.142C92.297 127.564 92.6137 127.042 93.05 126.629C93.4981 126.2 94.0003 125.83 94.5439 125.53C95.5751 124.961 96.6789 124.535 97.825 124.265C98.8698 123.999 99.823 123.825 100.575 123.697C101.446 123.503 102.34 123.426 103.232 123.468Z" fill="white"/>
<path d="M127.337 112.35C127.062 112.483 126.768 112.573 126.466 112.616C125.907 112.754 125.082 112.946 124.065 113.166L116.128 114.834C114.689 115.134 113.297 115.62 111.985 116.282C110.922 116.835 109.986 117.603 109.236 118.537C108.565 119.419 108.098 120.44 107.87 121.525C107.822 121.218 107.844 120.905 107.934 120.608C108.136 119.789 108.501 119.019 109.006 118.344C109.752 117.345 110.705 116.519 111.802 115.925C113.136 115.214 114.565 114.699 116.045 114.394C119.161 113.725 121.975 113.23 124.028 112.854C125.045 112.671 125.861 112.534 126.457 112.442C126.746 112.379 127.041 112.348 127.337 112.35Z" fill="white"/>
<path d="M89.9884 137.49C89.457 137.851 88.8534 138.092 88.2196 138.196C87.0739 138.507 85.47 138.636 83.7378 139.002C82.9378 139.165 82.1638 139.436 81.4374 139.809C80.8509 140.114 80.3209 140.517 79.8702 141C79.481 141.481 79.146 142.004 78.8712 142.558C78.9114 141.903 79.1769 141.281 79.6227 140.799C80.0679 140.247 80.6157 139.786 81.2358 139.442C81.9837 139.014 82.7939 138.705 83.637 138.526C85.4059 138.15 87.019 138.077 88.1463 137.848C89.2736 137.618 89.9609 137.408 89.9884 137.49Z" fill="white"/>
<path d="M134.201 105.22C134.201 105.293 133.862 105.284 133.376 105.412C132.757 105.58 132.2 105.924 131.772 106.402C131.36 106.899 131.108 107.51 131.048 108.153C130.993 108.648 131.048 108.978 130.984 108.987C130.92 108.996 130.755 108.703 130.728 108.144C130.697 107.402 130.945 106.676 131.424 106.109C131.911 105.551 132.587 105.192 133.321 105.101C133.88 105.037 134.21 105.165 134.201 105.22Z" fill="white"/>
<path d="M420.074 238.148L420.075 238.148C428.556 238.148 437.374 232.67 445.661 225.261C453.94 217.86 461.648 208.569 467.909 201.01L467.91 201.01C469.946 198.574 472.024 196.21 473.781 194.227C474.156 193.803 474.517 193.398 474.859 193.012C476.034 191.689 476.995 190.607 477.603 189.884L474.444 187.364C473.27 188.343 471.945 189.752 470.384 191.554C469.199 192.922 467.882 194.512 466.396 196.306C465.856 196.958 465.293 197.637 464.707 198.342L420.074 238.148ZM420.074 238.148C418.263 238.154 416.46 237.894 414.724 237.378C406.068 234.785 401.999 230.38 400.164 225.392C398.328 220.398 398.72 214.795 399.072 209.748L399.075 209.703C399.414 205.005 399.595 201.134 398.705 198.073C398.258 196.535 397.54 195.198 396.435 194.059C395.332 192.921 393.851 191.991 391.889 191.254L391.889 191.254C386.721 189.318 383.045 189.28 379.846 190.463C376.672 191.637 373.991 194.007 370.807 196.822L370.781 196.846L370.913 196.995L370.781 196.846L370.776 196.85C366.963 200.222 362.712 203.983 356.552 206.484C350.392 208.984 342.309 210.229 330.836 208.529C318.961 206.766 299.748 200.486 276.211 180.547L276.211 180.547C267.869 173.531 260.153 165.802 253.151 157.449L256.394 154.841C257.534 156.229 266.172 166.57 279.138 177.51C292.926 189.143 311.635 201.474 331.447 204.406C341.922 205.959 349.243 204.909 354.864 202.653C360.472 200.401 364.371 196.954 368.003 193.743L368.021 193.727L368.021 193.727C371.289 190.835 374.433 188.055 378.354 186.587C382.263 185.123 386.964 184.957 393.352 187.348C398.965 189.457 401.581 192.94 402.726 196.97C403.878 201.02 403.548 205.629 403.231 209.995L403.229 210.025C402.864 215.102 402.52 219.891 404.025 223.93C405.542 228.003 408.922 231.282 415.92 233.38L415.978 233.188L415.92 233.38C419.9 234.571 424.177 233.882 428.532 231.969C432.886 230.056 437.333 226.912 441.664 223.166C450.313 215.687 458.536 205.778 464.676 198.379L464.707 198.342L420.074 238.148Z" fill="#302EA7" stroke="black" stroke-width="0.4"/>
<path d="M355.47 202.265C355.47 202.265 355.287 202.439 354.92 202.669C354.406 203.009 353.871 203.315 353.316 203.585C351.484 204.482 349.548 205.147 347.552 205.565C345.557 205.975 343.518 206.132 341.484 206.032C340.87 206 340.259 205.936 339.651 205.84C339.425 205.821 339.202 205.768 338.991 205.684C338.991 205.611 339.963 205.684 341.503 205.684C345.524 205.704 349.505 204.88 353.188 203.264C354.59 202.623 355.434 202.155 355.47 202.265Z" fill="white"/>
<path d="M256.909 158.429C255.969 159.463 254.657 160.081 253.262 160.148C251.866 160.215 250.501 159.725 249.467 158.786L241.42 151.454L248.514 143.655L256.551 150.987C257.585 151.926 258.204 153.238 258.271 154.634C258.338 156.029 257.848 157.394 256.909 158.429Z" fill="#302EA7"/>
<path d="M256.909 158.429C257.179 158.033 257.427 157.623 257.651 157.201C258.217 156.005 258.306 154.638 257.899 153.379C257.623 152.508 257.12 151.726 256.441 151.115L254.013 148.943C252.299 147.385 250.392 145.671 248.367 143.847H248.679L245.132 147.751L241.585 151.647V151.335L247.194 156.44L249.595 158.649C250.266 159.264 251.088 159.691 251.978 159.886C253.272 160.169 254.625 159.95 255.763 159.272C256.165 159.008 256.55 158.72 256.918 158.41C256.624 158.803 256.261 159.139 255.846 159.4C254.69 160.162 253.28 160.435 251.923 160.161C250.973 159.975 250.09 159.539 249.366 158.896C248.605 158.218 247.799 157.485 246.937 156.724L241.282 151.619L241.117 151.472L241.273 151.307L244.811 147.403L248.358 143.517L248.504 143.352L248.669 143.499L254.278 148.64L256.68 150.849C257.391 151.508 257.911 152.347 258.183 153.278C258.581 154.6 258.443 156.026 257.798 157.246C257.581 157.695 257.279 158.096 256.909 158.429Z" fill="#263238"/>
<path d="M216.252 114.4L202.377 102.925C202.118 102.711 201.903 102.448 201.746 102.151C201.589 101.854 201.492 101.529 201.461 101.194C201.429 100.86 201.464 100.522 201.563 100.201C201.662 99.8802 201.823 99.5818 202.037 99.3231C202.252 99.0642 202.515 98.85 202.812 98.6929C203.109 98.5357 203.434 98.4386 203.768 98.4071C204.103 98.3756 204.44 98.4103 204.761 98.5093C205.082 98.6083 205.381 98.7696 205.639 98.984L219.506 110.459L216.252 114.4Z" fill="#302EA7"/>
<path d="M203.201 131.163L189.344 119.688C189.084 119.474 188.869 119.212 188.711 118.915C188.553 118.619 188.455 118.294 188.423 117.959C188.39 117.625 188.424 117.287 188.523 116.966C188.621 116.644 188.781 116.345 188.995 116.086C189.209 115.826 189.472 115.611 189.769 115.453C190.066 115.295 190.391 115.198 190.726 115.166C191.061 115.135 191.398 115.17 191.72 115.269C192.041 115.369 192.339 115.531 192.597 115.747L206.473 127.212L203.201 131.163Z" fill="#302EA7"/>
<g opacity="0.6">
<path opacity="0.6" d="M216.252 114.4L202.377 102.925C202.118 102.711 201.903 102.448 201.746 102.151C201.589 101.854 201.492 101.529 201.461 101.194C201.429 100.86 201.464 100.522 201.563 100.201C201.662 99.8802 201.823 99.5818 202.037 99.3231C202.252 99.0642 202.515 98.85 202.812 98.6929C203.109 98.5357 203.434 98.4386 203.768 98.4071C204.103 98.3756 204.44 98.4103 204.761 98.5093C205.082 98.6083 205.381 98.7696 205.639 98.984L219.506 110.459L216.252 114.4Z" fill="white"/>
</g>
<g opacity="0.6">
<path opacity="0.6" d="M203.201 131.163L189.344 119.688C189.084 119.474 188.869 119.212 188.711 118.915C188.553 118.619 188.455 118.294 188.423 117.959C188.39 117.625 188.424 117.287 188.523 116.966C188.621 116.644 188.781 116.345 188.995 116.086C189.209 115.826 189.472 115.611 189.769 115.453C190.066 115.295 190.391 115.198 190.726 115.166C191.061 115.135 191.398 115.17 191.72 115.269C192.041 115.369 192.339 115.531 192.597 115.747L206.473 127.212L203.201 131.163Z" fill="white"/>
</g>
<path d="M216.252 114.4C216.316 114.294 216.386 114.193 216.463 114.097L217.087 113.291L219.405 110.367V110.559L212.889 105.262L208.81 101.908L206.62 100.075L205.493 99.1581C205.149 98.8624 204.724 98.6771 204.274 98.6265C203.893 98.5777 203.506 98.6242 203.148 98.7618C202.79 98.8993 202.471 99.1237 202.221 99.4147C201.979 99.6989 201.807 100.037 201.721 100.4C201.635 100.763 201.637 101.142 201.726 101.504C201.814 101.846 201.984 102.16 202.221 102.421C202.479 102.692 202.758 102.943 203.055 103.172L204.778 104.602L210.717 109.597L214.74 113.025L215.84 113.941C215.98 114.054 216.112 114.176 216.234 114.308C216.097 114.229 215.968 114.137 215.849 114.033L214.749 113.117C213.732 112.301 212.339 111.192 210.653 109.826L204.549 104.868L202.789 103.429C202.468 103.182 202.162 102.916 201.872 102.632C201.485 102.212 201.237 101.682 201.164 101.116C201.091 100.549 201.197 99.9739 201.466 99.4699C201.735 98.966 202.154 98.5584 202.666 98.3038C203.177 98.0492 203.755 97.9601 204.32 98.0491C204.855 98.118 205.361 98.3373 205.777 98.6815L206.895 99.598L209.076 101.431L213.136 104.813L219.552 110.211L219.662 110.303L219.57 110.404L217.087 113.3L216.427 114.033C216.384 114.162 216.326 114.285 216.252 114.4Z" fill="#263238"/>
<path d="M203.201 131.163C203.264 131.054 203.337 130.953 203.421 130.86C203.586 130.64 203.788 130.374 204.045 130.054L206.363 127.13V127.322L199.847 122.016L195.768 118.671L193.578 116.838L192.451 115.921C192.1 115.631 191.674 115.447 191.223 115.389C190.841 115.344 190.455 115.393 190.097 115.532C189.739 115.671 189.42 115.896 189.17 116.187C188.926 116.47 188.755 116.808 188.671 117.172C188.586 117.536 188.591 117.915 188.684 118.276C188.77 118.616 188.937 118.931 189.17 119.193C189.432 119.461 189.714 119.709 190.013 119.935L191.727 121.374L197.675 126.369L201.698 129.797L202.798 130.713C202.94 130.821 203.069 130.944 203.183 131.08C203.183 131.08 203.055 130.998 202.807 130.805L201.698 129.934L197.601 126.644L191.507 121.686L189.747 120.238C189.421 119.996 189.115 119.729 188.83 119.44C188.545 119.115 188.344 118.725 188.244 118.304C188.132 117.874 188.127 117.424 188.227 116.991C188.328 116.559 188.532 116.157 188.821 115.82C189.124 115.48 189.505 115.219 189.932 115.06C190.358 114.9 190.817 114.846 191.268 114.904C191.804 114.973 192.309 115.192 192.726 115.536C193.101 115.857 193.477 116.159 193.853 116.453L196.034 118.286L200.094 121.658L206.51 127.066L206.611 127.157L206.528 127.258C205.483 128.459 204.649 129.43 204.035 130.145L203.385 130.888C203.293 131.089 203.201 131.172 203.201 131.163Z" fill="#263238"/>
<path d="M247.78 128.945L248.147 128.505C248.922 127.572 249.323 126.385 249.274 125.173C249.225 123.962 248.729 122.811 247.881 121.944C247.033 121.077 245.894 120.555 244.684 120.478C243.474 120.402 242.278 120.777 241.328 121.53L221.018 104.611L197.785 132.409L218.571 148.906C217.927 149.913 217.672 151.121 217.856 152.303C218.04 153.485 218.65 154.558 219.57 155.322C220.555 156.137 221.821 156.533 223.095 156.427C224.37 156.321 225.552 155.72 226.389 154.754C229.323 156.967 233.004 157.95 236.651 157.493C240.297 157.036 243.622 155.175 245.92 152.306L249.256 148.145C251.482 145.351 252.568 141.817 252.294 138.255C252.021 134.692 250.408 131.366 247.78 128.945Z" fill="#302EA7"/>
<path d="M247.78 128.945L247.955 129.1L248.44 129.568C248.709 129.816 248.958 130.086 249.183 130.374L249.632 130.924L250.09 131.593C250.9 132.762 251.519 134.052 251.923 135.415C252.533 137.473 252.666 139.643 252.312 141.76C251.958 143.877 251.126 145.885 249.879 147.632C249.137 148.686 248.275 149.685 247.432 150.776C246.582 151.928 245.641 153.01 244.619 154.011C242.294 156.185 239.304 157.51 236.132 157.769C232.62 158.074 229.12 157.076 226.298 154.964H226.582C225.724 155.942 224.53 156.56 223.236 156.697C222.564 156.767 221.885 156.703 221.238 156.508C220.592 156.313 219.99 155.991 219.47 155.56C218.508 154.761 217.872 153.638 217.679 152.403C217.487 151.168 217.752 149.905 218.425 148.851L218.471 149.135L202.349 136.277L197.647 132.537L197.464 132.4L197.611 132.217C206.079 122.135 213.989 112.658 220.872 104.446L221 104.291L221.147 104.419L241.411 121.383H241.255C241.996 120.8 242.886 120.439 243.824 120.341C244.762 120.243 245.708 120.412 246.553 120.829C247.399 121.246 248.109 121.894 248.602 122.697C249.095 123.501 249.35 124.428 249.339 125.37C249.321 126.359 249.001 127.318 248.422 128.12C248.275 128.322 248.116 128.515 247.945 128.697L247.771 128.89C247.771 128.89 247.991 128.615 248.367 128.083C248.907 127.268 249.194 126.311 249.192 125.334C249.189 124.563 249.002 123.804 248.646 123.12C248.291 122.436 247.777 121.847 247.148 121.402C246.351 120.814 245.389 120.494 244.399 120.485C243.298 120.472 242.227 120.838 241.365 121.521L241.282 121.585L241.2 121.521L220.853 104.657H221.128L197.959 132.519V132.198L202.652 135.938L218.736 148.769L218.892 148.888L218.782 149.053C218.16 150.014 217.91 151.169 218.079 152.301C218.247 153.433 218.823 154.465 219.699 155.203C220.643 155.983 221.855 156.364 223.076 156.263C224.297 156.162 225.43 155.587 226.233 154.662L226.362 154.524L226.508 154.634C229.124 156.587 232.341 157.562 235.601 157.389C238.861 157.217 241.957 155.908 244.353 153.69C245.35 152.7 246.269 151.633 247.102 150.501C247.955 149.419 248.834 148.411 249.568 147.385C251.206 145.094 252.119 142.364 252.188 139.548C252.256 136.733 251.478 133.961 249.953 131.593C249.797 131.355 249.65 131.126 249.504 130.915L249.064 130.365C248.844 130.069 248.605 129.787 248.349 129.522L247.881 129.036C247.808 128.975 247.774 128.945 247.78 128.945Z" fill="#263238"/>
<path d="M224.529 129.478L210.198 117.627L207.879 120.431L222.21 132.282L224.529 129.478Z" fill="#E0E0E0"/>
<path d="M247.78 128.945C247.555 129.326 247.297 129.688 247.01 130.026C246.497 130.713 245.736 131.685 244.783 132.876C242.886 135.269 240.201 138.522 237.204 142.087C234.207 145.653 231.54 148.815 229.514 151.207L227.186 153.956C226.911 154.307 226.604 154.632 226.27 154.928C226.495 154.546 226.753 154.184 227.04 153.846C227.553 153.159 228.314 152.187 229.267 150.996C231.164 148.604 233.849 145.35 236.846 141.831L244.536 132.666L246.873 129.916C247.144 129.564 247.448 129.239 247.78 128.945Z" fill="#263238"/>
<path d="M241.328 121.493C241.088 121.897 240.812 122.277 240.503 122.63C239.944 123.345 239.119 124.371 238.102 125.627C236.049 128.138 233.171 131.566 229.963 135.324C226.755 139.081 223.878 142.417 221.715 144.938C220.688 146.111 219.882 147.091 219.203 147.834C218.908 148.202 218.583 148.545 218.232 148.86C218.482 148.462 218.76 148.082 219.066 147.724C219.625 147.009 220.441 145.983 221.467 144.727C223.52 142.216 226.398 138.788 229.606 135.03L237.854 125.425L240.366 122.52C240.66 122.154 240.981 121.81 241.328 121.493Z" fill="#263238"/>
<path d="M206.279 81.3784H199.661L202.961 72.3533L192.879 86.175H199.498L196.198 95.2001L206.279 81.3784Z" fill="#BBBBD6"/>
<path d="M157.911 91.4431H147.953L152.918 108.097L137.748 82.5918H147.706L142.741 65.9378L157.911 91.4431Z" fill="#BBBBD6"/>
</g>
<defs>
<filter id="filter0_i_2_109" x="0" y="0.865646" width="340.296" height="245.652" filterUnits="userSpaceOnUse" color-interpolation-filters="sRGB">
<feFlood flood-opacity="0" result="BackgroundImageFix"/>
<feBlend mode="normal" in="SourceGraphic" in2="BackgroundImageFix" result="shape"/>
<feColorMatrix in="SourceAlpha" type="matrix" values="0 0 0 0 0 0 0 0 0 0 0 0 0 0 0 0 0 0 127 0" result="hardAlpha"/>
<feOffset dy="5.62608"/>
<feGaussianBlur stdDeviation="7.50145"/>
<feComposite in2="hardAlpha" operator="arithmetic" k2="-1" k3="1"/>
<feColorMatrix type="matrix" values="0 0 0 0 0 0 0 0 0 0 0 0 0 0 0 0 0 0 0.25 0"/>
<feBlend mode="normal" in2="shape" result="effect1_innerShadow_2_109"/>
</filter>
</defs>
</svg>
